<svg xmlns="http://www.w3.org/2000/svg" viewBox="0 0 128 128"><rect width="128" height="128" rx="28" fill="#FFF7F0"/><rect x="18" y="28" width="64" height="72" rx="14" fill="#FFF" stroke="#E7D6C7" stroke-width="4"/><path d="M30 44h40M30 60h40M30 76h40" stroke="#EEDDCB" stroke-width="6" stroke-linecap="round"/><rect x="32" y="36" width="18" height="16" rx="5" fill="#F97316" opacity=".75"/><rect x="52" y="54" width="16" height="16" rx="5" fill="#A855F7" opacity=".75"/><g transform="translate(66 54)"><circle cx="24" cy="22" r="20" fill="#FFB13B"/><path d="M9 8 18 0l6 12" fill="#FFB13B"/><path d="M39 8 30 0l-6 12" fill="#FFB13B"/><circle cx="18" cy="22" r="2.8" fill="#3C2A1B"/><circle cx="30" cy="22" r="2.8" fill="#3C2A1B"/><path d="M21 30q3 3 6 0" stroke="#E06262" stroke-width="3" fill="none" stroke-linecap="round"/><path d="M7 27h10M31 27h10" stroke="#E06262" stroke-width="3" stroke-linecap="round"/></g></svg>