<svg xmlns="http://www.w3.org/2000/svg" viewBox="0 0 128 128"><rect width="128" height="128" rx="28" fill="#FFF7F0"/><rect x="24" y="18" width="54" height="92" rx="14" fill="#F8FAFF" stroke="#B8B8E8" stroke-width="4"/><rect x="50" y="24" width="22" height="80" rx="8" fill="#2E2B88" opacity=".9"/><rect x="32" y="36" width="6" height="20" rx="3" fill="#8B8BD6"/><rect x="32" y="66" width="6" height="20" rx="3" fill="#8B8BD6"/><g transform="translate(62 50)"><circle cx="24" cy="22" r="20" fill="#FFB13B"/><path d="M9 8 18 0l6 12" fill="#FFB13B"/><path d="M39 8 30 0l-6 12" fill="#FFB13B"/><circle cx="18" cy="22" r="2.8" fill="#3C2A1B"/><circle cx="30" cy="22" r="2.8" fill="#3C2A1B"/><path d="M21 30q3 3 6 0" stroke="#E06262" stroke-width="3" fill="none" stroke-linecap="round"/><path d="M7 27h10M31 27h10" stroke="#E06262" stroke-width="3" stroke-linecap="round"/><path d="M44 24h12" stroke="#E06262" stroke-width="3" stroke-linecap="round"/><path d="M44 30h10" stroke="#E06262" stroke-width="3" stroke-linecap="round"/></g></svg>