<svg xmlns="http://www.w3.org/2000/svg" viewBox="0 0 240 160"><defs><linearGradient id="g" x1="0" x2="1"><stop offset="0" stop-color="#7C3AED"/><stop offset="1" stop-color="#F97316"/></linearGradient></defs><rect width="240" height="160" rx="28" fill="#FFF9F3"/><ellipse cx="120" cy="138" rx="72" ry="10" fill="#F1E6DA"/><rect x="48" y="34" width="72" height="84" rx="18" fill="#FDFEFF" stroke="#B7B6E8" stroke-width="4"/><rect x="83" y="40" width="28" height="72" rx="10" fill="#2E2B88"/><rect x="59" y="52" width="7" height="18" rx="3.5" fill="#8B8BD6"/><rect x="59" y="78" width="7" height="18" rx="3.5" fill="#8B8BD6"/><g transform="translate(106 42)"><circle cx="42" cy="38" r="28" fill="#FFB13B"/><path d="M21 18 34 4l7 17" fill="#FFB13B"/><path d="M63 18 50 4l-7 17" fill="#FFB13B"/><circle cx="34" cy="38" r="4" fill="#3C2A1B"/><circle cx="50" cy="38" r="4" fill="#3C2A1B"/><path d="M38 50q5 5 10 0" stroke="#E06262" stroke-width="4" fill="none" stroke-linecap="round"/><path d="M18 44h12M56 44h12" stroke="#E06262" stroke-width="4" stroke-linecap="round"/></g><path d="M165 112c20 0 34 14 34 30" stroke="url(#g)" stroke-width="8" fill="none" stroke-linecap="round"/></svg>