<svg xmlns="http://www.w3.org/2000/svg" viewBox="0 0 128 128"><rect width="128" height="128" rx="28" fill="#FFF7F0"/><rect x="22" y="18" width="58" height="88" rx="16" fill="#FFF" stroke="#DCCFE9" stroke-width="4"/><path d="M36 42h28M36 58h28M36 74h28" stroke="#D8C6FF" stroke-width="6" stroke-linecap="round"/><circle cx="32" cy="42" r="4" fill="#A855F7"/><circle cx="32" cy="58" r="4" fill="#A855F7"/><circle cx="32" cy="74" r="4" fill="#A855F7"/><g transform="translate(62 60)"><circle cx="24" cy="20" r="18" fill="#FFB13B"/><path d="M11 8 18 0l5 10" fill="#FFB13B"/><path d="M37 8 30 0l-5 10" fill="#FFB13B"/><circle cx="18" cy="20" r="2.6" fill="#3C2A1B"/><circle cx="29" cy="20" r="2.6" fill="#3C2A1B"/><path d="M20 27q4 4 7 0" stroke="#E06262" stroke-width="3" fill="none" stroke-linecap="round"/><path d="M6 34l8-8 6 6" stroke="#A855F7" stroke-width="4" fill="none" stroke-linecap="round" stroke-linejoin="round"/></g></svg>